<svg width="376" height="103" viewBox="0 0 376 103" fill="none" xmlns="http://www.w3.org/2000/svg">
<g filter="url(#filter0_d_1_57)">
<rect x="21" y="12" width="334" height="61" rx="12" fill="#3C0215"/>
</g>
<path d="M75.688 43.416C75.688 42.328 75.9333 41.352 76.424 40.488C76.9147 39.6133 77.5813 38.9307 78.424 38.44C79.2773 37.9493 80.2213 37.704 81.256 37.704C82.472 37.704 83.5333 37.9973 84.44 38.584C85.3467 39.1707 86.008 40.0027 86.424 41.08H84.68C84.3707 40.408 83.9227 39.8907 83.336 39.528C82.76 39.1653 82.0667 38.984 81.256 38.984C80.4773 38.984 79.7787 39.1653 79.16 39.528C78.5413 39.8907 78.056 40.408 77.704 41.08C77.352 41.7413 77.176 42.52 77.176 43.416C77.176 44.3013 77.352 45.08 77.704 45.752C78.056 46.4133 78.5413 46.9253 79.16 47.288C79.7787 47.6507 80.4773 47.832 81.256 47.832C82.0667 47.832 82.76 47.656 83.336 47.304C83.9227 46.9413 84.3707 46.424 84.68 45.752H86.424C86.008 46.8187 85.3467 47.6453 84.44 48.232C83.5333 48.808 82.472 49.096 81.256 49.096C80.2213 49.096 79.2773 48.856 78.424 48.376C77.5813 47.8853 76.9147 47.208 76.424 46.344C75.9333 45.48 75.688 44.504 75.688 43.416ZM90.0474 41.656C90.3034 41.1547 90.666 40.7653 91.1354 40.488C91.6154 40.2107 92.1967 40.072 92.8794 40.072V41.576H92.4954C90.8634 41.576 90.0474 42.4613 90.0474 44.232V49H88.5914V40.232H90.0474V41.656ZM102.56 44.28C102.56 44.5573 102.544 44.8507 102.512 45.16H95.5041C95.5575 46.024 95.8508 46.7013 96.3841 47.192C96.9281 47.672 97.5841 47.912 98.3521 47.912C98.9815 47.912 99.5041 47.768 99.9201 47.48C100.347 47.1813 100.645 46.7867 100.816 46.296H102.384C102.149 47.1387 101.68 47.8267 100.976 48.36C100.272 48.8827 99.3975 49.144 98.3521 49.144C97.5201 49.144 96.7735 48.9573 96.1121 48.584C95.4615 48.2107 94.9495 47.6827 94.5761 47C94.2028 46.3067 94.0161 45.5067 94.0161 44.6C94.0161 43.6933 94.1975 42.8987 94.5601 42.216C94.9228 41.5333 95.4295 41.0107 96.0801 40.648C96.7415 40.2747 97.4988 40.088 98.3521 40.088C99.1841 40.088 99.9201 40.2693 100.56 40.632C101.2 40.9947 101.691 41.496 102.032 42.136C102.384 42.7653 102.56 43.48 102.56 44.28ZM101.056 43.976C101.056 43.4213 100.933 42.9467 100.688 42.552C100.443 42.1467 100.107 41.8427 99.6801 41.64C99.2641 41.4267 98.8001 41.32 98.2881 41.32C97.5521 41.32 96.9228 41.5547 96.4001 42.024C95.8881 42.4933 95.5948 43.144 95.5201 43.976H101.056ZM103.938 44.584C103.938 43.688 104.119 42.904 104.482 42.232C104.845 41.5493 105.341 41.0213 105.97 40.648C106.61 40.2747 107.319 40.088 108.098 40.088C108.866 40.088 109.533 40.2533 110.098 40.584C110.663 40.9147 111.085 41.3307 111.362 41.832V40.232H112.834V49H111.362V47.368C111.074 47.88 110.642 48.3067 110.066 48.648C109.501 48.9787 108.839 49.144 108.082 49.144C107.303 49.144 106.599 48.952 105.97 48.568C105.341 48.184 104.845 47.6453 104.482 46.952C104.119 46.2587 103.938 45.4693 103.938 44.584ZM111.362 44.6C111.362 43.9387 111.229 43.3627 110.962 42.872C110.695 42.3813 110.333 42.008 109.874 41.752C109.426 41.4853 108.93 41.352 108.386 41.352C107.842 41.352 107.346 41.48 106.898 41.736C106.45 41.992 106.093 42.3653 105.826 42.856C105.559 43.3467 105.426 43.9227 105.426 44.584C105.426 45.256 105.559 45.8427 105.826 46.344C106.093 46.8347 106.45 47.2133 106.898 47.48C107.346 47.736 107.842 47.864 108.386 47.864C108.93 47.864 109.426 47.736 109.874 47.48C110.333 47.2133 110.695 46.8347 110.962 46.344C111.229 45.8427 111.362 45.2613 111.362 44.6ZM117.071 41.432V46.6C117.071 47.0267 117.161 47.3307 117.343 47.512C117.524 47.6827 117.839 47.768 118.286 47.768H119.359V49H118.047C117.236 49 116.628 48.8133 116.223 48.44C115.817 48.0667 115.615 47.4533 115.615 46.6V41.432H114.479V40.232H115.615V38.024H117.071V40.232H119.359V41.432H117.071ZM129.123 44.28C129.123 44.5573 129.107 44.8507 129.075 45.16H122.067C122.12 46.024 122.413 46.7013 122.947 47.192C123.491 47.672 124.147 47.912 124.915 47.912C125.544 47.912 126.067 47.768 126.483 47.48C126.909 47.1813 127.208 46.7867 127.379 46.296H128.947C128.712 47.1387 128.243 47.8267 127.539 48.36C126.835 48.8827 125.96 49.144 124.915 49.144C124.083 49.144 123.336 48.9573 122.675 48.584C122.024 48.2107 121.512 47.6827 121.139 47C120.765 46.3067 120.579 45.5067 120.579 44.6C120.579 43.6933 120.76 42.8987 121.123 42.216C121.485 41.5333 121.992 41.0107 122.643 40.648C123.304 40.2747 124.061 40.088 124.915 40.088C125.747 40.088 126.483 40.2693 127.123 40.632C127.763 40.9947 128.253 41.496 128.595 42.136C128.947 42.7653 129.123 43.48 129.123 44.28ZM127.619 43.976C127.619 43.4213 127.496 42.9467 127.251 42.552C127.005 42.1467 126.669 41.8427 126.243 41.64C125.827 41.4267 125.363 41.32 124.851 41.32C124.115 41.32 123.485 41.5547 122.963 42.024C122.451 42.4933 122.157 43.144 122.083 43.976H127.619ZM142.862 40.232L137.582 53.128H136.078L137.806 48.904L134.27 40.232H135.886L138.638 47.336L141.358 40.232H142.862ZM148.15 49.144C147.328 49.144 146.582 48.9573 145.91 48.584C145.248 48.2107 144.726 47.6827 144.342 47C143.968 46.3067 143.782 45.5067 143.782 44.6C143.782 43.704 143.974 42.9147 144.358 42.232C144.752 41.5387 145.286 41.0107 145.958 40.648C146.63 40.2747 147.382 40.088 148.214 40.088C149.046 40.088 149.798 40.2747 150.47 40.648C151.142 41.0107 151.67 41.5333 152.054 42.216C152.448 42.8987 152.646 43.6933 152.646 44.6C152.646 45.5067 152.443 46.3067 152.038 47C151.643 47.6827 151.104 48.2107 150.422 48.584C149.739 48.9573 148.982 49.144 148.15 49.144ZM148.15 47.864C148.672 47.864 149.163 47.7413 149.622 47.496C150.08 47.2507 150.448 46.8827 150.726 46.392C151.014 45.9013 151.158 45.304 151.158 44.6C151.158 43.896 151.019 43.2987 150.742 42.808C150.464 42.3173 150.102 41.9547 149.654 41.72C149.206 41.4747 148.72 41.352 148.198 41.352C147.664 41.352 147.174 41.4747 146.726 41.72C146.288 41.9547 145.936 42.3173 145.67 42.808C145.403 43.2987 145.27 43.896 145.27 44.6C145.27 45.3147 145.398 45.9173 145.654 46.408C145.92 46.8987 146.272 47.2667 146.71 47.512C147.147 47.7467 147.627 47.864 148.15 47.864ZM162.336 40.232V49H160.88V47.704C160.603 48.152 160.213 48.504 159.712 48.76C159.221 49.0053 158.677 49.128 158.08 49.128C157.397 49.128 156.784 48.9893 156.24 48.712C155.696 48.424 155.264 47.9973 154.944 47.432C154.635 46.8667 154.48 46.1787 154.48 45.368V40.232H155.92V45.176C155.92 46.04 156.139 46.7067 156.576 47.176C157.013 47.6347 157.611 47.864 158.368 47.864C159.147 47.864 159.76 47.624 160.208 47.144C160.656 46.664 160.88 45.9653 160.88 45.048V40.232H162.336ZM166.251 41.656C166.507 41.1547 166.869 40.7653 167.339 40.488C167.819 40.2107 168.4 40.072 169.083 40.072V41.576H168.699C167.067 41.576 166.251 42.4613 166.251 44.232V49H164.795V40.232H166.251V41.656ZM178.853 49.144C178.032 49.144 177.285 48.9573 176.613 48.584C175.952 48.2107 175.429 47.6827 175.045 47C174.672 46.3067 174.485 45.5067 174.485 44.6C174.485 43.704 174.677 42.9147 175.061 42.232C175.456 41.5387 175.989 41.0107 176.661 40.648C177.333 40.2747 178.085 40.088 178.917 40.088C179.749 40.088 180.501 40.2747 181.173 40.648C181.845 41.0107 182.373 41.5333 182.757 42.216C183.152 42.8987 183.349 43.6933 183.349 44.6C183.349 45.5067 183.146 46.3067 182.741 47C182.346 47.6827 181.808 48.2107 181.125 48.584C180.442 48.9573 179.685 49.144 178.853 49.144ZM178.853 47.864C179.376 47.864 179.866 47.7413 180.325 47.496C180.784 47.2507 181.152 46.8827 181.429 46.392C181.717 45.9013 181.861 45.304 181.861 44.6C181.861 43.896 181.722 43.2987 181.445 42.808C181.168 42.3173 180.805 41.9547 180.357 41.72C179.909 41.4747 179.424 41.352 178.901 41.352C178.368 41.352 177.877 41.4747 177.429 41.72C176.992 41.9547 176.64 42.3173 176.373 42.808C176.106 43.2987 175.973 43.896 175.973 44.6C175.973 45.3147 176.101 45.9173 176.357 46.408C176.624 46.8987 176.976 47.2667 177.413 47.512C177.85 47.7467 178.33 47.864 178.853 47.864ZM196.943 40.232L194.207 49H192.703L190.591 42.04L188.479 49H186.975L184.223 40.232H185.711L187.727 47.592L189.903 40.232H191.391L193.519 47.608L195.503 40.232H196.943ZM202.66 40.072C203.727 40.072 204.591 40.3973 205.252 41.048C205.914 41.688 206.244 42.616 206.244 43.832V49H204.804V44.04C204.804 43.1653 204.586 42.4987 204.148 42.04C203.711 41.5707 203.114 41.336 202.356 41.336C201.588 41.336 200.975 41.576 200.516 42.056C200.068 42.536 199.844 43.2347 199.844 44.152V49H198.388V40.232H199.844V41.48C200.132 41.032 200.522 40.6853 201.012 40.44C201.514 40.1947 202.063 40.072 202.66 40.072ZM212.248 44.552C212.248 43.6667 212.43 42.8827 212.792 42.2C213.166 41.5173 213.667 40.9893 214.296 40.616C214.936 40.232 215.646 40.04 216.424 40.04C217 40.04 217.566 40.168 218.12 40.424C218.686 40.6693 219.134 41 219.464 41.416V37.16H221.304V49H219.464V47.672C219.166 48.0987 218.75 48.4507 218.216 48.728C217.694 49.0053 217.091 49.144 216.408 49.144C215.64 49.144 214.936 48.952 214.296 48.568C213.667 48.1733 213.166 47.6293 212.792 46.936C212.43 46.232 212.248 45.4373 212.248 44.552ZM219.464 44.584C219.464 43.976 219.336 43.448 219.08 43C218.835 42.552 218.51 42.2107 218.104 41.976C217.699 41.7413 217.262 41.624 216.792 41.624C216.323 41.624 215.886 41.7413 215.48 41.976C215.075 42.2 214.744 42.536 214.488 42.984C214.243 43.4213 214.12 43.944 214.12 44.552C214.12 45.16 214.243 45.6933 214.488 46.152C214.744 46.6107 215.075 46.9627 215.48 47.208C215.896 47.4427 216.334 47.56 216.792 47.56C217.262 47.56 217.699 47.4427 218.104 47.208C218.51 46.9733 218.835 46.632 219.08 46.184C219.336 45.7253 219.464 45.192 219.464 44.584ZM224.628 39.016C224.297 39.016 224.02 38.904 223.796 38.68C223.572 38.456 223.46 38.1787 223.46 37.848C223.46 37.5173 223.572 37.24 223.796 37.016C224.02 36.792 224.297 36.68 224.628 36.68C224.948 36.68 225.22 36.792 225.444 37.016C225.668 37.24 225.78 37.5173 225.78 37.848C225.78 38.1787 225.668 38.456 225.444 38.68C225.22 38.904 224.948 39.016 224.628 39.016ZM225.524 40.184V49H223.7V40.184H225.524ZM239.759 40.184L237.023 49H235.103L233.327 42.488L231.551 49H229.631L226.879 40.184H228.735L230.575 47.272L232.447 40.184H234.351L236.143 47.24L237.967 40.184H239.759ZM240.514 44.552C240.514 43.6667 240.695 42.8827 241.058 42.2C241.431 41.5173 241.933 40.9893 242.562 40.616C243.202 40.232 243.906 40.04 244.674 40.04C245.367 40.04 245.97 40.1787 246.482 40.456C247.005 40.7227 247.421 41.0587 247.73 41.464V40.184H249.57V49H247.73V47.688C247.421 48.104 246.999 48.4507 246.466 48.728C245.933 49.0053 245.325 49.144 244.642 49.144C243.885 49.144 243.191 48.952 242.562 48.568C241.933 48.1733 241.431 47.6293 241.058 46.936C240.695 46.232 240.514 45.4373 240.514 44.552ZM247.73 44.584C247.73 43.976 247.602 43.448 247.346 43C247.101 42.552 246.775 42.2107 246.37 41.976C245.965 41.7413 245.527 41.624 245.058 41.624C244.589 41.624 244.151 41.7413 243.746 41.976C243.341 42.2 243.01 42.536 242.754 42.984C242.509 43.4213 242.386 43.944 242.386 44.552C242.386 45.16 242.509 45.6933 242.754 46.152C243.01 46.6107 243.341 46.9627 243.746 47.208C244.162 47.4427 244.599 47.56 245.058 47.56C245.527 47.56 245.965 47.4427 246.37 47.208C246.775 46.9733 247.101 46.632 247.346 46.184C247.602 45.7253 247.73 45.192 247.73 44.584ZM253.79 37.16V49H251.966V37.16H253.79ZM257.112 39.016C256.782 39.016 256.504 38.904 256.28 38.68C256.056 38.456 255.944 38.1787 255.944 37.848C255.944 37.5173 256.056 37.24 256.28 37.016C256.504 36.792 256.782 36.68 257.112 36.68C257.432 36.68 257.704 36.792 257.928 37.016C258.152 37.24 258.264 37.5173 258.264 37.848C258.264 38.1787 258.152 38.456 257.928 38.68C257.704 38.904 257.432 39.016 257.112 39.016ZM258.008 40.184V49H256.184V40.184H258.008ZM264.157 44.6C264.157 43.6933 264.338 42.904 264.701 42.232C265.063 41.5493 265.565 41.0213 266.205 40.648C266.855 40.2747 267.597 40.088 268.429 40.088C269.506 40.088 270.391 40.3493 271.085 40.872C271.789 41.3947 272.253 42.12 272.477 43.048H270.909C270.759 42.5147 270.466 42.0933 270.029 41.784C269.602 41.4747 269.069 41.32 268.429 41.32C267.597 41.32 266.925 41.608 266.413 42.184C265.901 42.7493 265.645 43.5547 265.645 44.6C265.645 45.656 265.901 46.472 266.413 47.048C266.925 47.624 267.597 47.912 268.429 47.912C269.069 47.912 269.602 47.7627 270.029 47.464C270.455 47.1653 270.749 46.7387 270.909 46.184H272.477C272.242 47.08 271.773 47.8 271.069 48.344C270.365 48.8773 269.485 49.144 268.429 49.144C267.597 49.144 266.855 48.9573 266.205 48.584C265.565 48.2107 265.063 47.6827 264.701 47C264.338 46.3173 264.157 45.5173 264.157 44.6ZM273.876 44.584C273.876 43.688 274.057 42.904 274.42 42.232C274.782 41.5493 275.278 41.0213 275.908 40.648C276.548 40.2747 277.257 40.088 278.036 40.088C278.804 40.088 279.47 40.2533 280.036 40.584C280.601 40.9147 281.022 41.3307 281.3 41.832V40.232H282.772V49H281.3V47.368C281.012 47.88 280.58 48.3067 280.004 48.648C279.438 48.9787 278.777 49.144 278.02 49.144C277.241 49.144 276.537 48.952 275.908 48.568C275.278 48.184 274.782 47.6453 274.42 46.952C274.057 46.2587 273.876 45.4693 273.876 44.584ZM281.3 44.6C281.3 43.9387 281.166 43.3627 280.9 42.872C280.633 42.3813 280.27 42.008 279.812 41.752C279.364 41.4853 278.868 41.352 278.324 41.352C277.78 41.352 277.284 41.48 276.836 41.736C276.388 41.992 276.03 42.3653 275.764 42.856C275.497 43.3467 275.364 43.9227 275.364 44.584C275.364 45.256 275.497 45.8427 275.764 46.344C276.03 46.8347 276.388 47.2133 276.836 47.48C277.284 47.736 277.78 47.864 278.324 47.864C278.868 47.864 279.364 47.736 279.812 47.48C280.27 47.2133 280.633 46.8347 280.9 46.344C281.166 45.8427 281.3 45.2613 281.3 44.6ZM286.688 41.656C286.944 41.1547 287.307 40.7653 287.776 40.488C288.256 40.2107 288.837 40.072 289.52 40.072V41.576H289.136C287.504 41.576 286.688 42.4613 286.688 44.232V49H285.232V40.232H286.688V41.656ZM290.657 44.584C290.657 43.688 290.838 42.904 291.201 42.232C291.563 41.5493 292.059 41.0213 292.689 40.648C293.329 40.2747 294.043 40.088 294.833 40.088C295.515 40.088 296.15 40.248 296.737 40.568C297.323 40.8773 297.771 41.288 298.081 41.8V37.16H299.553V49H298.081V47.352C297.793 47.8747 297.366 48.3067 296.801 48.648C296.235 48.9787 295.574 49.144 294.817 49.144C294.038 49.144 293.329 48.952 292.689 48.568C292.059 48.184 291.563 47.6453 291.201 46.952C290.838 46.2587 290.657 45.4693 290.657 44.584ZM298.081 44.6C298.081 43.9387 297.947 43.3627 297.681 42.872C297.414 42.3813 297.051 42.008 296.593 41.752C296.145 41.4853 295.649 41.352 295.105 41.352C294.561 41.352 294.065 41.48 293.617 41.736C293.169 41.992 292.811 42.3653 292.545 42.856C292.278 43.3467 292.145 43.9227 292.145 44.584C292.145 45.256 292.278 45.8427 292.545 46.344C292.811 46.8347 293.169 47.2133 293.617 47.48C294.065 47.736 294.561 47.864 295.105 47.864C295.649 47.864 296.145 47.736 296.593 47.48C297.051 47.2133 297.414 46.8347 297.681 46.344C297.947 45.8427 298.081 45.2613 298.081 44.6Z" fill="#FFE9E9"/>
<defs>
<filter id="filter0_d_1_57" x="0" y="0" width="376" height="103" filterUnits="userSpaceOnUse" color-interpolation-filters="sRGB">
<feFlood flood-opacity="0" result="BackgroundImageFix"/>
<feColorMatrix in="SourceAlpha" type="matrix" values="0 0 0 0 0 0 0 0 0 0 0 0 0 0 0 0 0 0 127 0" result="hardAlpha"/>
<feMorphology radius="6" operator="dilate" in="SourceAlpha" result="effect1_dropShadow_1_57"/>
<feOffset dy="9"/>
<feGaussianBlur stdDeviation="7.5"/>
<feComposite in2="hardAlpha" operator="out"/>
<feColorMatrix type="matrix" values="0 0 0 0 0 0 0 0 0 0 0 0 0 0 0 0 0 0 0.18 0"/>
<feBlend mode="normal" in2="BackgroundImageFix" result="effect1_dropShadow_1_57"/>
<feBlend mode="normal" in="SourceGraphic" in2="effect1_dropShadow_1_57" result="shape"/>
</filter>
</defs>
</svg>
